<svg xmlns="http://www.w3.org/2000/svg" viewBox="0 0 280 74.13"><defs><style>.cls-1{fill:#ffffff;}</style></defs><g id="Layer_2" data-name="Layer 2"><g id="_Layer_" data-name="&lt;Layer&gt;"><path class="cls-1" d="M15.81,47a10.6,10.6,0,0,1-7-2.6v1.9H0V4.38L8.77,0V15.06a10.2,10.2,0,0,1,7-2.8c7.12,0,13,5.33,13,17.78C28.77,40,24.07,47,15.81,47ZM14.16,20.51a6.12,6.12,0,0,0-5.39,2.8V35.89a7,7,0,0,0,5.9,2.85c3.36,0,5.21-2.92,5.21-8.51C19.88,23.37,17.59,20.51,14.16,20.51Z"/><path class="cls-1" d="M104.38,46.3v-18c0-6-2-7.75-5.66-7.75S93,22.29,93,28.07V46.3H84.25V13H93v2.22a10.91,10.91,0,0,1,7.81-2.92c8.51,0,12.32,5.84,12.32,15.24V46.3Z"/><path class="cls-1" d="M142.07,46.3l-6.36-15.37-4.25,5.27V46.3H122.7V4.38L131.46,0V17.72c0,2-.06,5.46-.13,7.11.9-1.33,2.42-3.42,3.56-4.89l5.4-7h10.35l-8.57,10.6,9.59,22.74Z"/><path class="cls-1" d="M183.1,32.45H163.16c.32,4.58,3.68,6.29,6.85,6.29a7.44,7.44,0,0,0,5.72-2.35L182,41.6c-2.67,3.43-7.5,5.4-12,5.4-9.58,0-15.68-6.8-15.68-17.34,0-10.22,6.41-17.4,14.86-17.4,8.89,0,14,7.87,14,17.4C183.22,30.93,183.16,31.82,183.1,32.45ZM168.75,19.88c-3.18,0-5.15,2.6-5.47,6h11.43C174.46,22.87,172.68,19.88,168.75,19.88Z"/><path class="cls-1" d="M209.71,23.18A7.58,7.58,0,0,0,204.62,21c-3.42,0-5.65,1.46-5.65,7.24v18h-8.76V13H199v2.22a9.23,9.23,0,0,1,6.86-2.92A8.5,8.5,0,0,1,212,14.61Z"/><path class="cls-1" d="M228.82,47a26.31,26.31,0,0,1-14-3.87l2.93-6.67a23.25,23.25,0,0,0,11.55,3c3.44,0,4.45-.83,4.45-2.55,0-1.52-1.2-2.28-4.89-3.36-8-2.41-13.15-4.38-13.15-11.43s5.53-9.91,13.34-9.91a26.66,26.66,0,0,1,12.32,3.23l-2.79,6.93a21.58,21.58,0,0,0-9.72-2.66c-3.55,0-4.51.69-4.51,2.15s1,2,6.92,3.88,11.12,4.13,11.12,10.79C242.41,44.27,236.31,47,228.82,47Z"/><path class="cls-1" d="M248.77,46.67A2.66,2.66,0,1,1,251.41,44,2.67,2.67,0,0,1,248.77,46.67Z"/><path class="cls-1" d="M258.82,26.49a2.22,2.22,0,1,1,2.21-2.2A2.23,2.23,0,0,1,258.82,26.49ZM257.09,46.3V28.77h3.44V46.3Z"/><path class="cls-1" d="M279.9,38.75H268.31c.36,3.38,2.27,4.81,4.4,4.81a6.17,6.17,0,0,0,3.82-1.4l2,2.2a8.18,8.18,0,0,1-6.05,2.31c-4.12,0-7.59-3.31-7.59-9.12s3.14-9.15,7.69-9.15c5,0,7.38,4,7.38,8.78C280,37.82,279.93,38.38,279.9,38.75Zm-7.52-7.25c-2.3,0-3.71,1.61-4,4.41h8.16C276.36,33.51,275.22,31.5,272.38,31.5Z"/><path class="cls-1" d="M76,19.68A22.42,22.42,0,1,0,57.64,51.47a4,4,0,0,1,4.06,2.26l9.07,19.44c.63,1.36,3,1.18,5.42,0s4.1-2.82,3.46-4.18l-9-19.35a4.07,4.07,0,0,1,.78-4.6A22.45,22.45,0,0,0,76,19.68ZM61,40.59a12.62,12.62,0,1,1,6.11-16.77A12.64,12.64,0,0,1,61,40.59Z"/><path class="cls-1" d="M46.56,30.62h0a1.12,1.12,0,0,1-.28-1l.81-3.55a8.18,8.18,0,0,1,6.32-6.2L57,19.14a1.07,1.07,0,0,1,1,.3h0a1.09,1.09,0,0,1-.3,1.74L53.93,23a8.16,8.16,0,0,0-3.74,3.67l-1.88,3.7A1.09,1.09,0,0,1,46.56,30.62Z"/></g></g></svg>